<svg id="Camada_1" data-name="Camada 1" xmlns="http://www.w3.org/2000/svg" viewBox="0 0 241.48 241.48">
  <style>
    .white{fill:#fff}
  </style>
  <title>cara</title>
  <path class="white" d="M120.7,0c66.7,0,120.91,54.31,120.78,121-.14,66.16-54.74,120.59-120.9,120.53C53.92,241.41-.07,187.17,0,120.33.07,53.84,54.1,0,120.7,0ZM126,188.44c17.77-.22,34.93-4.49,50.12-15.43,2.74-2,3.27-3.54,1.29-6.46-4.38-6.49-8.54-13.13-12.54-19.86-1.78-3-3.41-3.3-6.36-1.51-8.21,5-16.9,8.4-26.77,8.64-18,.43-30.51-10.14-33.13-28.45C96.05,107.72,105.88,92.85,123,89a41.34,41.34,0,0,1,31.26,5.22c3.1,1.85,4.91,1.62,6.94-1.39C164.43,88,168,83.35,171.5,78.67c7.61-10.22,7.77-10.57-3.74-16.28-28.53-14.14-57-12.75-84,3.39C42.25,90.57,48.44,145.71,70.84,167.52,86.09,182.36,104.47,188.4,126,188.44Z"/>
</svg>
