<svg id="Layer_1" data-name="Layer 1" xmlns="http://www.w3.org/2000/svg" xmlns:xlink="http://www.w3.org/1999/xlink" viewBox="0 0 504.4 504.4">
	<style>
		.primary{fill:#03a9f4;}
	</style>
	<title>ko-fi</title>
	<path class="primary" d="M501.8,187.8c-4.7-30.4-22.1-57.4-47.8-74.2c-21.3-15-46.6-23-72.6-23H18.5c-10,1.4-17.6,9.7-18.1,19.8v5
	c0,0-1.6,160,1.7,247.4c1.7,28.8,25.6,51.3,54.4,51.1c0,0,166.6,0,245.7-1.6h11.6c46.2-11.6,49.5-54.4,49.5-77.5
	C453.9,337.9,518.3,273.6,501.8,187.8z M270.9,260.4c-26.4,31.3-84.1,84.1-84.1,84.1c-1.3,1.3-3.1,1.9-4.9,1.6c-1.7,0-3.3,0-3.3-3.3
	c-30.2-26.3-58.8-54.4-85.8-84.1c-14.8-19.8-21.4-56.1-1.7-77.5l1.7-1.7c27.9-22,68.3-17.6,90.7,9.9c0,0,33-37.9,72.6-19.8
	C295.6,187.8,294,232.4,270.9,260.4z M399.5,270.3c-12.1,1.4-24.2,2-36.3,1.7V153.2h24.7c16.2-0.5,31.5,6.9,41.2,19.8
	c8.7,10.7,13.4,24.1,13.2,37.9C445.1,238.7,426.8,264.2,399.5,270.3z"/>
</svg>